<svg width="300" height="300" viewBox="0 0 300 300" fill="none" xmlns="http://www.w3.org/2000/svg">
<path fill-rule="evenodd" clip-rule="evenodd" d="M239.084 13.5652C239.084 6.07335 233.001 0 225.498 0H72.6699C65.1666 0 59.084 6.07337 59.084 13.5652V47.258C59.084 54.7498 53.0013 60.8232 45.498 60.8232H13.5859C6.08263 60.8232 0 66.8965 0 74.3884V225.612C0 233.103 6.08263 239.177 13.5859 239.177H105.498C113.001 239.177 119.084 245.25 119.084 252.742V286.435C119.084 293.927 125.167 300 132.67 300H225.498C233.001 300 239.084 293.927 239.084 286.435V253.421C239.084 249.823 240.515 246.373 243.063 243.829L243.743 243.15C246.291 240.606 249.747 239.177 253.35 239.177H286.414C293.917 239.177 300 233.103 300 225.612V191.919C300 184.427 293.917 178.354 286.414 178.354H252.67C245.167 178.354 239.084 172.28 239.084 164.788L239.084 135.212C239.084 127.72 245.167 121.646 252.67 121.646H286.414C293.917 121.646 300 115.573 300 108.081V74.3884C300 66.8965 293.917 60.8232 286.414 60.8232H252.67C245.167 60.8232 239.084 54.7498 239.084 47.2579V13.5652ZM235.565 235.663C237.818 233.413 239.084 230.362 239.084 227.181L239.084 192.834C239.084 185.342 233.001 179.268 225.498 179.268H193.586C186.083 179.268 180 185.342 180 192.834V225.612C180 233.103 186.083 239.177 193.586 239.177H227.069C230.256 239.177 233.312 237.913 235.565 235.663ZM164.582 178.354C172.085 178.354 178.168 172.28 178.168 164.788V135.212C178.168 127.72 172.085 121.646 164.582 121.646H132.67C125.167 121.646 119.084 127.72 119.084 135.212V164.788C119.084 172.28 125.167 178.354 132.67 178.354H164.582Z" fill="black"/>
</svg>
